<svg width="160" height="200" viewBox="0 0 160 200" fill="none" xmlns="http://www.w3.org/2000/svg">
<g id="noun_Llama_3263829 1">
<path id="body" d="M132.24 88.04C132.24 82.29 126.59 77.61 119.64 77.61C116.39 77.61 113.44 78.64 111.2 80.31C108.12 78.35 104.47 77.21 100.59 77.21H74.35C74.56 76.33 74.67 75.43 74.67 74.5C74.67 72.14 73.97 69.89 72.69 68C73.97 66.11 74.67 63.86 74.67 61.49C74.67 58.25 73.32 55.24 71.07 53.09C73.52 49.67 74.83 45.68 74.83 41.51C74.83 37.23 73.44 33.25 71.05 29.92C71.56 27.64 71.82 25.18 71.82 22.77C71.82 14.56 68.92 5.72 62.54 5.72C56.76 5.72 53.84 12.96 53.34 20.42C52.81 20.39 52.29 20.36 51.75 20.36C51.22 20.36 50.7 20.39 50.17 20.42C49.67 12.96 46.75 5.72 40.97 5.72C34.59 5.72 31.69 14.56 31.69 22.77C31.69 25.18 31.95 27.64 32.46 29.92C30.07 33.25 28.68 37.23 28.68 41.51C28.68 46.29 30.46 50.9 33.66 54.6C32.21 56.57 31.4 58.96 31.4 61.49C31.4 63.86 32.1 66.11 33.38 68C32.1 69.89 31.4 72.14 31.4 74.5C31.4 76.15 31.75 77.76 32.41 79.24C29.57 81.39 27.76 84.81 27.76 88.53C27.76 91.2 28.66 93.72 30.26 95.74C28.66 97.75 27.76 100.27 27.76 102.95C27.76 107.16 30.07 110.92 33.52 112.96C33.55 120.81 35.93 127.99 39.85 132.23V146.74C39.85 150.9 43.23 154.28 47.39 154.28H49.05C53.21 154.28 56.59 150.9 56.59 146.74V132.23C56.96 131.83 57.31 131.4 57.65 130.95C57.99 131.4 58.34 131.83 58.71 132.23V146.74C58.71 150.9 62.09 154.28 66.25 154.28H67.91C72.07 154.28 75.45 150.9 75.45 146.74V132.23C77.44 130.08 79.05 127.15 80.15 123.71H80.46C81.55 127.11 83.15 130.06 85.16 132.23V146.74C85.16 150.9 88.54 154.28 92.7 154.28H94.36C98.52 154.28 101.9 150.9 101.9 146.74V132.23C102.35 131.75 102.77 131.22 103.17 130.67C103.58 131.22 104 131.75 104.44 132.23V146.74C104.44 150.9 107.83 154.28 111.99 154.28H113.65C117.8 154.28 121.19 150.9 121.19 146.74V132.23C125.12 127.96 127.52 120.71 127.52 112.8C127.52 107.13 126.3 101.87 124.19 97.77C128.9 96.25 132.24 92.47 132.24 88.04ZM62.54 12.99C63.42 14.09 64.82 17.48 64.82 22.77C64.82 23.22 64.8 23.64 64.78 24.06C63.38 23.19 61.87 22.45 60.28 21.87C60.43 17.1 61.71 14.03 62.54 12.99ZM40.97 12.99C41.8 14.03 43.08 17.1 43.23 21.87C41.64 22.45 40.13 23.19 38.73 24.06C38.71 23.64 38.69 23.22 38.69 22.77C38.69 17.48 40.09 14.09 40.97 12.99ZM50.8 128.11L49.59 129.16V146.74C49.59 147.04 49.35 147.28 49.05 147.28H47.39C47.09 147.28 46.85 147.04 46.85 146.74V129.16L45.63 128.11C44.7 127.3 43.77 126.04 42.96 124.4C45.27 125.74 47.89 126.46 50.63 126.46H52.26C51.79 127.13 51.3 127.68 50.8 128.11ZM96.11 128.11L94.9 129.16V146.74C94.9 147.04 94.66 147.28 94.36 147.28H92.7C92.4 147.28 92.16 147.04 92.16 146.74V129.16L90.94 128.11C89.89 127.19 88.83 125.69 87.95 123.71H99.11C98.23 125.69 97.17 127.19 96.11 128.11ZM115.4 128.11C114.63 128.77 114.19 129.74 114.19 130.76V146.74C114.19 147.04 113.95 147.28 113.65 147.28H111.99C111.69 147.28 111.44 147.04 111.44 146.74V130.76C111.44 129.74 111 128.77 110.23 128.11C108.3 126.44 106.7 123.28 105.83 119.44C105.47 117.84 104.05 116.71 102.42 116.71H77.48C75.84 116.71 74.43 117.84 74.07 119.44C73.2 123.28 71.6 126.44 69.67 128.11C68.9 128.77 68.45 129.74 68.45 130.76V146.74C68.45 147.04 68.21 147.28 67.91 147.28H66.25C65.95 147.28 65.71 147.04 65.71 146.74V130.76C65.71 129.74 65.27 128.77 64.5 128.11C63.01 126.83 61.69 124.6 60.77 121.85C60.29 120.42 58.96 119.46 57.45 119.46H50.63C48.38 119.46 46.27 118.58 44.68 117C43.09 115.41 42.22 113.29 42.22 111.05C42.22 109.23 40.82 107.71 39.01 107.56C36.62 107.36 34.76 105.34 34.76 102.95C34.76 101.22 35.71 99.64 37.25 98.84C38.41 98.24 39.13 97.04 39.13 95.74C39.13 94.43 38.41 93.24 37.25 92.63C35.71 91.83 34.76 90.26 34.76 88.53C34.76 86.37 36.29 84.47 38.39 84.01C39.68 83.72 40.7 82.74 41.03 81.47C41.36 80.19 40.95 78.84 39.96 77.97C38.95 77.07 38.4 75.84 38.4 74.5C38.4 73.04 39.08 71.69 40.26 70.8C41.14 70.14 41.66 69.1 41.66 68C41.66 66.9 41.14 65.86 40.26 65.2C39.08 64.31 38.4 62.96 38.4 61.49C38.4 59.9 39.21 58.44 40.56 57.58C41.51 56.98 42.12 55.95 42.18 54.83C42.25 53.7 41.77 52.61 40.89 51.9C37.53 49.18 35.68 45.49 35.68 41.51C35.68 33.71 42.89 27.36 51.75 27.36C60.62 27.36 67.83 33.71 67.83 41.51C67.83 45.15 66.25 48.61 63.38 51.26C62.48 52.09 62.08 53.33 62.32 54.54C62.57 55.74 63.43 56.72 64.58 57.13C66.43 57.79 67.67 59.54 67.67 61.49C67.67 62.96 66.99 64.31 65.81 65.2C64.93 65.86 64.41 66.9 64.41 68C64.41 69.1 64.93 70.14 65.81 70.8C66.99 71.69 67.67 73.04 67.67 74.5C67.67 75.87 67.07 77.16 66.03 78.04C64.91 78.99 64.5 80.54 65 81.92C65.51 83.3 66.82 84.21 68.29 84.21H100.59C106.74 84.21 112.02 88.6 113.13 94.65C113.31 95.61 113.88 96.45 114.7 96.97C117.5 98.75 120.52 104.46 120.52 112.8C120.52 120.32 117.95 125.91 115.4 128.11ZM119.64 91.48H119.55C118.89 89.19 117.84 87.09 116.48 85.24C117.35 84.85 118.43 84.61 119.64 84.61C122.94 84.61 125.24 86.42 125.24 88.04C125.24 89.67 122.94 91.48 119.64 91.48Z" fill="black"/>
<g id="eyesnose">
<path id="Vector" d="M47.26 36.71C47.26 38.39 45.9 39.75 44.22 39.75C42.54 39.75 41.18 38.39 41.18 36.71C41.18 35.03 42.54 33.67 44.22 33.67C45.9 33.67 47.26 35.03 47.26 36.71Z" fill="black"/>
<path id="Vector_2" d="M62.29 36.71C62.29 38.39 60.92 39.75 59.25 39.75C57.57 39.75 56.21 38.39 56.21 36.71C56.21 35.03 57.57 33.67 59.25 33.67C60.92 33.67 62.29 35.03 62.29 36.71Z" fill="black"/>
<path id="nose" d="M47.8 44.567C47.8 45.639 48.478 46.546 49.425 46.901C49.156 47.989 48.179 48.801 47.01 48.801C45.629 48.801 44.51 49.92 44.51 51.301C44.51 52.682 45.629 53.801 47.01 53.801C48.919 53.801 50.658 53.077 51.983 51.898C53.308 53.078 55.047 53.801 56.956 53.801C58.337 53.801 59.456 52.682 59.456 51.301C59.456 49.92 58.337 48.801 56.956 48.801C55.791 48.801 54.818 47.995 54.545 46.914C55.513 46.569 56.21 45.654 56.21 44.567C56.21 43.186 55.091 42.067 53.71 42.067H50.3C48.919 42.067 47.8 43.186 47.8 44.567Z" fill="black"/>
</g>
</g>
</svg>
