<svg width="472" height="499" viewBox="0 0 472 499" fill="none" xmlns="http://www.w3.org/2000/svg">
<g id="mountain-sun">
<g id="sun3">
<circle id="Ellipse 2" cx="236" cy="185" r="182" stroke="#1C1918" stroke-width="5"/>
</g>
<path id="Vector" d="M403.501 469.001C399.359 469.001 396.001 465.643 396.001 461.501C396.001 457.359 399.359 454.001 403.501 454.001H463.501V409.001H403.501C399.359 409.001 396.001 405.643 396.001 401.501H381.001C381.001 405.643 377.643 409.001 373.501 409.001H8.50098V424.001H403.501C407.643 424.001 411.001 427.359 411.001 431.501C411.001 435.643 407.643 439.001 403.501 439.001H8.50098V484.001H68.501C72.643 484.001 76.001 487.359 76.001 491.501H91.001C91.001 487.359 94.359 484.001 98.501 484.001H268.501C272.643 484.001 276.001 487.359 276.001 491.501H291.001C291.001 487.359 294.359 484.001 298.501 484.001H463.501V469.001H403.501ZM373.501 469.001H68.501C64.359 469.001 61.001 465.643 61.001 461.501C61.001 457.359 64.359 454.001 68.501 454.001H373.501C377.643 454.001 381.001 457.359 381.001 461.501C381.001 465.643 377.643 469.001 373.501 469.001Z" fill="#68E1F2"/>
<g id="sun3_2">
<circle id="Ellipse 1" cx="236" cy="185" r="175" fill="#FFB914"/>
</g>
<g id="mountain">
<path id="Vector_2" d="M337.132 256.351C326.292 238.377 317.022 219.409 309.529 199.637H162.473C154.98 219.409 145.71 238.377 134.87 256.352L162.002 277.704L194.36 252.24C197.082 250.099 200.915 250.098 203.636 252.24L235.995 277.704L268.353 252.24C271.075 250.099 274.908 250.098 277.629 252.24L309.993 277.705L337.132 256.351Z" fill="white"/>
<path id="Vector_3" d="M381.001 401.501H396.001C396.001 397.359 399.359 394.001 403.501 394.001H463.501V379.001C462.195 379.001 460.88 378.665 459.682 377.955C413.543 350.652 374.455 313.229 345.194 269.094L314.632 293.141C313.272 294.212 311.632 294.747 309.994 294.747C308.355 294.747 306.717 294.212 305.356 293.141L272.993 267.676L240.634 293.141C237.912 295.283 234.079 295.283 231.358 293.141L198.999 267.677L166.641 293.141C163.919 295.282 160.085 295.282 157.365 293.141L126.809 269.095C97.547 313.23 58.459 350.653 12.32 377.956C11.119 378.667 9.80198 378.996 8.50098 378.995V394.002H373.501C377.643 394.001 381.001 397.359 381.001 401.501Z" fill="#556466"/>
<path id="Vector_4" d="M12.32 377.956C58.458 350.654 97.547 313.231 126.808 269.096L157.364 293.142C160.085 295.283 163.919 295.283 166.64 293.142L198.998 267.678L231.357 293.142C234.079 295.284 237.912 295.284 240.633 293.142L272.992 267.677L305.355 293.142C306.716 294.213 308.354 294.748 309.993 294.748C311.631 294.748 313.27 294.213 314.631 293.142L345.193 269.095C374.454 313.23 413.543 350.653 459.681 377.956C460.879 378.665 462.195 379.002 463.493 379.002C466.062 378.999 468.556 377.684 469.955 375.32C472.064 371.756 470.885 367.155 467.32 365.046C440.695 349.29 416.529 330.007 395.386 307.931C363.069 274.187 337.831 233.902 321.801 189.585C320.727 186.615 317.907 184.636 314.748 184.636H157.252C154.094 184.636 151.273 186.615 150.199 189.585C134.169 233.901 108.931 274.187 76.614 307.931C55.471 330.007 31.305 349.29 4.67997 365.046C1.11497 367.155 -0.0650268 371.755 2.04497 375.32C3.44397 377.685 5.93897 378.991 8.49997 378.994C9.80197 378.996 11.12 378.666 12.32 377.956ZM268.354 252.239L235.996 277.703L203.637 252.239C200.915 250.097 197.082 250.098 194.361 252.239L162.003 277.703L134.871 256.351C145.711 238.377 154.981 219.409 162.474 199.636H309.53C317.023 219.408 326.293 238.376 337.133 256.35L309.995 277.703L277.631 252.238C274.909 250.098 271.076 250.099 268.354 252.239Z" fill="#1C1918"/>
<path id="Vector_5" d="M396.001 401.501C396.001 405.643 399.359 409.001 403.501 409.001H463.501C467.643 409.001 471.001 405.643 471.001 401.501C471.001 397.359 467.643 394.001 463.501 394.001H403.501C399.359 394.001 396.001 397.359 396.001 401.501Z" fill="#1C1918"/>
<path id="Vector_6" d="M381.001 401.501C381.001 397.359 377.643 394.001 373.501 394.001H8.50098C4.35898 394.001 1.00098 397.359 1.00098 401.501C1.00098 405.643 4.35898 409.001 8.50098 409.001H373.501C377.643 409.001 381.001 405.643 381.001 401.501Z" fill="#1C1918"/>
</g>
<path id="wave1" d="M411.001 431.501C411.001 427.359 407.643 424.001 403.501 424.001H8.50098C4.35898 424.001 1.00098 427.359 1.00098 431.501C1.00098 435.643 4.35898 439.001 8.50098 439.001H403.501C407.643 439.001 411.001 435.643 411.001 431.501Z" fill="#0B7786"/>
<g id="wave2">
<path id="Vector_7" d="M396.001 461.501C396.001 465.643 399.359 469.001 403.501 469.001H463.501C467.643 469.001 471.001 465.643 471.001 461.501C471.001 457.359 467.643 454.001 463.501 454.001H403.501C399.359 454.001 396.001 457.359 396.001 461.501Z" fill="#0B7786"/>
<path id="Vector_8" d="M373.501 454.001H68.501C64.359 454.001 61.001 457.359 61.001 461.501C61.001 465.643 64.359 469.001 68.501 469.001H373.501C377.643 469.001 381.001 465.643 381.001 461.501C381.001 457.359 377.643 454.001 373.501 454.001Z" fill="#0B7786"/>
</g>
<g id="wave3">
<path id="Vector_9" d="M291.001 491.501C291.001 495.643 294.359 499.001 298.501 499.001H463.501C467.643 499.001 471.001 495.643 471.001 491.501C471.001 487.359 467.643 484.001 463.501 484.001H298.501C294.359 484.001 291.001 487.359 291.001 491.501Z" fill="#0B7786"/>
<path id="Vector_10" d="M268.501 484.001H98.501C94.359 484.001 91.001 487.359 91.001 491.501C91.001 495.643 94.359 499.001 98.501 499.001H268.501C272.643 499.001 276.001 495.643 276.001 491.501C276.001 487.359 272.643 484.001 268.501 484.001Z" fill="#0B7786"/>
<path id="Vector_11" d="M68.501 484.001H8.50098C4.35898 484.001 1.00098 487.359 1.00098 491.501C1.00098 495.643 4.35898 499.001 8.50098 499.001H68.501C72.643 499.001 76.001 495.643 76.001 491.501C76.001 487.359 72.643 484.001 68.501 484.001Z" fill="#0B7786"/>
</g>
</g>
</svg>
