<svg width="512" height="512" viewBox="0 0 512 512" fill="none" xmlns="http://www.w3.org/2000/svg">
<g id="sun 1">
<g id="rays">
<path id="Vector" d="M79.219 432.781C83.126 436.686 89.456 436.686 93.362 432.781L157.002 369.141C160.907 365.236 160.907 358.904 157.002 354.998C153.097 351.095 146.765 351.094 142.86 354.998L79.219 418.638C75.314 422.544 75.313 428.876 79.219 432.781V432.781Z" fill="#FFD600"/>
<path id="Vector_2" d="M418.639 79.219L354.999 142.859C351.094 146.764 351.094 153.096 354.999 157.002C358.906 160.907 365.235 160.906 369.142 157.002L432.782 93.362C436.687 89.457 436.687 83.125 432.782 79.219C428.875 75.314 422.545 75.314 418.639 79.219V79.219Z" fill="#FFD600"/>
<path id="Vector_3" d="M93.361 79.219C89.456 75.315 83.124 75.315 79.218 79.219C75.313 83.124 75.313 89.456 79.218 93.362L142.859 157.002C146.765 160.907 153.096 160.906 157.001 157.002C160.906 153.097 160.906 146.765 157.001 142.859L93.361 79.219Z" fill="#FFD600"/>
<path id="Vector_4" d="M432.781 432.781C436.686 428.876 436.686 422.544 432.781 418.638L369.141 354.998C365.235 351.094 358.905 351.094 354.998 354.998C351.093 358.903 351.093 365.235 354.998 369.141L418.638 432.781C422.546 436.687 428.875 436.686 432.781 432.781V432.781Z" fill="#FFD600"/>
<path id="Vector_5" d="M304.161 398.407L327.121 453.837C329.217 458.895 335.038 461.378 340.187 459.249C345.29 457.135 347.712 451.285 345.599 446.183L322.639 390.753C320.524 385.65 314.676 383.231 309.573 385.341C304.471 387.455 302.048 393.305 304.161 398.407Z" fill="#FFD600"/>
<path id="Vector_6" d="M202.427 126.659C207.53 124.545 209.953 118.695 207.839 113.593L184.879 58.163C182.765 53.061 176.914 50.639 171.814 52.751C166.711 54.865 164.288 60.715 166.402 65.817L189.362 121.247C191.462 126.317 197.291 128.784 202.427 126.659V126.659Z" fill="#FFD600"/>
<path id="Vector_7" d="M113.593 304.161L58.163 327.121C53.06 329.235 50.637 335.085 52.751 340.187C54.852 345.257 60.68 347.724 65.816 345.599L121.246 322.639C126.349 320.525 128.772 314.675 126.658 309.573C124.545 304.472 118.695 302.049 113.593 304.161V304.161Z" fill="#FFD600"/>
<path id="Vector_8" d="M453.837 184.879C458.94 182.765 461.362 176.915 459.249 171.813C457.135 166.71 451.286 164.291 446.183 166.401L390.753 189.361C385.65 191.475 383.228 197.325 385.341 202.427C387.437 207.485 393.258 209.968 398.407 207.839L453.837 184.879Z" fill="#FFD600"/>
<path id="Vector_9" d="M453.837 327.121L398.407 304.161C393.304 302.053 387.455 304.471 385.341 309.573C383.228 314.676 385.651 320.525 390.753 322.639L446.183 345.599C451.337 347.73 457.155 345.242 459.249 340.187C461.362 335.085 458.939 329.235 453.837 327.121Z" fill="#FFD600"/>
<path id="Vector_10" d="M52.751 171.813C50.637 176.916 53.061 182.765 58.163 184.879L113.593 207.839C118.735 209.966 124.56 207.493 126.658 202.427C128.772 197.324 126.348 191.475 121.246 189.361L65.816 166.401C60.716 164.291 54.865 166.711 52.751 171.813V171.813Z" fill="#FFD600"/>
<path id="Vector_11" d="M184.879 453.837L207.839 398.407C209.953 393.304 207.529 387.455 202.427 385.341C197.325 383.232 191.476 385.652 189.362 390.753L166.402 446.183C164.288 451.286 166.712 457.135 171.814 459.249C176.955 461.376 182.78 458.903 184.879 453.837Z" fill="#FFD600"/>
<path id="Vector_12" d="M304.161 113.593C302.048 118.696 304.471 124.545 309.573 126.659C314.727 128.79 320.545 126.302 322.639 121.247L345.599 65.817C347.712 60.714 345.289 54.865 340.187 52.751C335.084 50.643 329.236 53.062 327.121 58.163L304.161 113.593Z" fill="#FFD600"/>
<path id="Vector_13" d="M266 502V406C266 400.478 261.522 396 256 396C250.478 396 246 400.478 246 406V502C246 507.522 250.478 512 256 512C261.522 512 266 507.522 266 502Z" fill="#FFD600"/>
<path id="Vector_14" d="M266 106V10C266 4.478 261.522 0 256 0C250.478 0 246 4.478 246 10V106C246 111.522 250.478 116 256 116C261.522 116 266 111.522 266 106Z" fill="#FFD600"/>
<path id="Vector_15" d="M0 256C0 261.522 4.477 266 10 266H106C111.523 266 116 261.522 116 256C116 250.478 111.523 246 106 246H10C4.477 246 0 250.478 0 256Z" fill="#FFD600"/>
<path id="Vector_16" d="M502 246H406C400.478 246 396 250.478 396 256C396 261.522 400.478 266 406 266H502C507.522 266 512 261.522 512 256C512 250.478 507.522 246 502 246Z" fill="#FFD600"/>
</g>
<g id="center-circle">
<path id="Vector_17" d="M320 330C325.523 330 330 325.523 330 320C330 314.477 325.523 310 320 310C314.477 310 310 314.477 310 320C310 325.523 314.477 330 320 330Z" fill="#FFD600"/>
<path id="Vector_18" d="M256 356C265.448 356 274.802 354.682 283.801 352.083C289.107 350.551 292.165 345.007 290.633 339.7C289.101 334.394 283.555 331.338 278.25 332.868C271.056 334.946 263.57 336 256 336C211.888 336 176 300.112 176 256C176 211.888 211.888 176 256 176C300.112 176 336 211.888 336 256C336 263.57 334.946 271.056 332.868 278.25C331.336 283.557 334.394 289.101 339.7 290.633C345.009 292.163 350.551 289.106 352.083 283.801C354.682 274.802 356 265.448 356 256C356 200.859 311.141 156 256 156C200.86 156 156 200.859 156 256C156 311.141 200.86 356 256 356Z" fill="#FFD600"/>
</g>
</g>
</svg>
